<?xml version="1.0" encoding="UTF-8" standalone="no"?>
<!-- Created with Inkscape (http://www.inkscape.org/) -->

<svg
   width="210mm"
   height="297mm"
   viewBox="0 0 210 297"
   version="1.1"
   id="svg1"
   xml:space="preserve"
   inkscape:version="1.3 (0e150ed6c4, 2023-07-21)"
   sodipodi:docname="dark_logo.svg"
   xmlns:inkscape="http://www.inkscape.org/namespaces/inkscape"
   xmlns:sodipodi="http://sodipodi.sourceforge.net/DTD/sodipodi-0.dtd"
   xmlns="http://www.w3.org/2000/svg"
   xmlns:svg="http://www.w3.org/2000/svg"><sodipodi:namedview
     id="namedview1"
     pagecolor="#505050"
     bordercolor="#eeeeee"
     borderopacity="1"
     inkscape:showpageshadow="0"
     inkscape:pageopacity="0"
     inkscape:pagecheckerboard="0"
     inkscape:deskcolor="#505050"
     inkscape:document-units="mm"
     inkscape:zoom="0.74583495"
     inkscape:cx="253.40727"
     inkscape:cy="610.05454"
     inkscape:window-width="1440"
     inkscape:window-height="830"
     inkscape:window-x="-6"
     inkscape:window-y="-6"
     inkscape:window-maximized="1"
     inkscape:current-layer="layer1" /><defs
     id="defs1" /><g
     inkscape:label="Layer 1"
     inkscape:groupmode="layer"
     id="layer1"><path
       id="rect1"
       style="fill:#000000;stroke-width:0.267403"
       d="M 78.088257 92.613468 C 68.531051 92.613288 60.783167 99.700408 60.78337 108.44248 C 60.78637 109.95913 61.027439 111.46736 61.499605 112.92127 L 78.087223 124.6911 L 94.68621 112.91404 C 95.154145 111.46201 95.391711 109.95623 95.39211 108.44248 C 95.392305 99.700615 87.645238 92.613576 78.088257 92.613468 z M 64.491671 102.42321 L 73.527812 102.42321 C 75.009208 102.42321 76.202067 103.61554 76.202067 105.09694 L 76.202067 106.11135 L 79.973413 106.11135 L 79.973413 105.09694 C 79.973413 103.61554 81.165755 102.42321 82.647152 102.42321 L 91.683809 102.42321 C 93.165211 102.42321 94.357548 103.61554 94.357548 105.09694 L 94.357548 109.70752 C 94.357548 111.18891 93.165211 112.38177 91.683809 112.38177 L 82.647152 112.38177 C 81.165755 112.38177 79.973413 111.18891 79.973413 109.70752 L 79.973413 108.14017 L 76.202067 108.14017 L 76.202067 109.70752 C 76.202067 111.18891 75.009208 112.38177 73.527812 112.38177 L 64.491671 112.38177 C 63.010275 112.38177 61.817932 111.18891 61.817932 109.70752 L 61.817932 105.09694 C 61.817932 103.61554 63.010275 102.42321 64.491671 102.42321 z M 43.359627 103.21282 L 43.359627 108.54273 L 40.258008 106.61313 L 40.258008 112.73162 L 38.530981 111.83038 L 38.530981 129.67529 A 6.9175825 8.3365736 0 0 1 45.053064 137.99674 A 6.9175825 8.3365736 0 0 1 38.530981 146.2996 L 38.530981 162.56217 L 72.143917 180.10632 L 72.143917 130.37499 C 73.366871 128.70288 76.027579 127.34262 78.025728 127.35347 L 78.027279 127.35347 L 78.031413 127.35347 C 79.945545 127.35047 82.727303 128.95209 84.031563 130.61787 L 84.031563 180.10632 L 117.6445 162.56217 L 117.6445 146.2996 A 6.9175825 8.3365736 0 0 1 111.1219 137.99674 A 6.9175825 8.3365736 0 0 1 117.6445 129.69441 L 117.6445 111.83038 L 115.91799 112.73162 L 115.91799 106.6152 L 112.81482 108.53911 L 112.81482 103.21282 L 82.109717 126.70906 C 80.819932 126.00703 79.404012 125.5511 78.031413 125.55254 L 78.027279 125.55254 C 76.654968 125.54654 75.221279 125.93451 73.92417 126.59951 L 43.359627 103.21282 z M 65.473006 103.50479 C 64.313422 103.50479 63.380111 104.4381 63.380111 105.59769 L 63.380111 109.20677 C 63.380111 110.36636 64.313422 111.29967 65.473006 111.29967 L 72.546476 111.29967 C 73.706058 111.29967 74.639372 110.36636 74.639372 109.20677 L 74.639372 105.59769 C 74.639372 104.4381 73.706058 103.50479 72.546476 103.50479 L 65.473006 103.50479 z M 83.629004 103.50479 C 82.469421 103.50479 81.535592 104.4381 81.535592 105.59769 L 81.535592 109.20677 C 81.535592 110.36636 82.469421 111.29967 83.629004 111.29967 L 90.701957 111.29967 C 91.861548 111.29967 92.795369 110.36636 92.795369 109.20677 L 92.795369 105.59769 C 92.795369 104.4381 91.861548 103.50479 90.701957 103.50479 L 83.629004 103.50479 z M 45.160551 106.85549 L 64.736617 121.83597 L 45.160551 109.66204 L 45.160551 106.85549 z M 111.01596 106.85549 L 111.01596 109.65429 L 91.756156 121.59361 L 111.01596 106.85549 z M 114.11758 109.84963 L 114.11758 113.6711 L 84.816012 128.96577 C 84.589995 128.79082 84.357045 128.61919 84.150419 128.42782 L 114.11758 109.84963 z M 42.058931 109.85169 L 71.658158 128.25987 C 71.466194 128.44595 71.275943 128.63344 71.094885 128.82728 L 42.058931 113.67161 L 42.058931 109.85169 z M 82.728284 130.25045 A 7.1490707 3.8129487 0 0 1 78.087223 131.17339 A 7.1490707 3.8129487 0 0 1 73.447196 130.25096 L 73.447196 178.91311 C 73.447196 180.16062 74.471099 181.16465 75.74318 181.16465 L 80.4323 181.16465 C 81.704385 181.16465 82.728284 180.16059 82.728284 178.91311 L 82.728284 130.25045 z M 38.313424 131.22972 C 35.493609 131.30312 33.23673 134.63824 33.236731 137.96781 C 33.23673 141.64181 35.930217 144.99764 39.204325 144.62011 C 42.59796 144.22879 43.019598 141.83716 43.019596 138.16314 C 43.019598 134.48914 42.793619 132.09814 39.204325 131.3155 C 38.902438 131.2497 38.605128 131.22212 38.313424 131.22972 z M 117.8481 131.22972 C 117.5564 131.22172 117.25858 131.2497 116.95669 131.3155 C 113.36737 132.09814 113.1414 134.48914 113.14141 138.16314 C 113.1414 141.83716 113.56303 144.22879 116.95669 144.62011 C 120.23081 144.99764 122.92428 141.64181 122.92428 137.96781 C 122.92428 134.63824 120.66794 131.30315 117.8481 131.22972 z " /><path
       style="fill:#000000;fill-opacity:1;stroke:none;stroke-width:6.44989;stroke-dasharray:none;stroke-opacity:1"
       d=""
       id="path9"
       transform="scale(0.26458333)" /></g></svg>
