<?xml version="1.0" encoding="UTF-8" standalone="no"?>
<!-- Created with Inkscape (http://www.inkscape.org/) -->

<svg
   width="89.687546mm"
   height="88.551224mm"
   viewBox="0 0 89.687546 88.551224"
   version="1.1"
   id="svg1"
   inkscape:version="1.3 (0e150ed6c4, 2023-07-21)"
   sodipodi:docname="white_logo.svg"
   xmlns:inkscape="http://www.inkscape.org/namespaces/inkscape"
   xmlns:sodipodi="http://sodipodi.sourceforge.net/DTD/sodipodi-0.dtd"
   xmlns="http://www.w3.org/2000/svg"
   xmlns:svg="http://www.w3.org/2000/svg">
  <sodipodi:namedview
     id="namedview1"
     pagecolor="#505050"
     bordercolor="#eeeeee"
     borderopacity="1"
     inkscape:showpageshadow="0"
     inkscape:pageopacity="0"
     inkscape:pagecheckerboard="0"
     inkscape:deskcolor="#505050"
     inkscape:document-units="mm"
     inkscape:zoom="1.0547699"
     inkscape:cx="328.03362"
     inkscape:cy="497.73888"
     inkscape:window-width="1440"
     inkscape:window-height="830"
     inkscape:window-x="-6"
     inkscape:window-y="-6"
     inkscape:window-maximized="1"
     inkscape:current-layer="layer1" />
  <defs
     id="defs1" />
  <g
     inkscape:label="Layer 1"
     inkscape:groupmode="layer"
     id="layer1"
     transform="translate(-40.252141,-76.210211)">
    <path
       id="rect1-9"
       style="fill:#ffffff;stroke-width:0.267403"
       d="m 85.103669,76.210212 c -9.55721,-1.8e-4 -17.305093,7.086939 -17.30489,15.829008 0.003,1.516658 0.244069,3.024888 0.716236,4.478796 L 85.102629,108.28784 101.70162,96.510781 c 0.46794,-1.452028 0.7055,-2.957803 0.7059,-4.471561 2e-4,-8.741862 -7.746871,-15.8289 -17.303851,-15.829008 z M 71.50708,86.019949 h 9.036139 c 1.48139,0 2.67426,1.19233 2.67426,2.673739 v 1.014408 h 3.77134 v -1.014408 c 0,-1.481409 1.19234,-2.673739 2.67374,-2.673739 h 9.03614 c 1.481401,0 2.674261,1.19233 2.674261,2.673739 v 4.610571 c 0,1.481398 -1.19286,2.674255 -2.674261,2.674255 h -9.03614 c -1.4814,0 -2.67374,-1.192857 -2.67374,-2.674255 v -1.567346 h -3.77134 v 1.567346 c 0,1.481398 -1.19287,2.674255 -2.67426,2.674255 H 71.50708 c -1.481396,0 -2.673739,-1.192857 -2.673739,-2.674255 v -4.610571 c 0,-1.481409 1.192343,-2.673739 2.673739,-2.673739 z m -21.132043,0.789616 v 5.329907 l -3.10162,-1.929598 v 6.11849 l -1.727026,-0.901237 v 17.844903 a 6.9175825,8.3365736 0 0 1 6.522082,8.32146 6.9175825,8.3365736 0 0 1 -6.522082,8.30285 v 16.26257 l 33.612935,17.54415 v -49.73133 c 1.222953,-1.67211 3.883663,-3.03237 5.881813,-3.02152 h 0.0021 0.0041 c 1.91413,-0.003 4.69589,1.59862 6.00015,3.2644 v 49.48845 l 33.612421,-17.54415 v -16.26257 a 6.9175825,8.3365736 0 0 1 -6.5226,-8.30285 6.9175825,8.3365736 0 0 1 6.5226,-8.30234 V 95.427127 l -1.72651,0.901237 v -6.116423 l -3.10317,1.923914 v -5.32629 L 89.125129,110.30581 c -1.28979,-0.70203 -2.70571,-1.15796 -4.07831,-1.15652 h -0.0036 c -1.37231,-0.006 -2.806,0.38196 -4.10311,1.04696 z m 22.113378,0.291972 c -1.159583,0 -2.092895,0.933306 -2.092895,2.092895 v 3.609082 c 0,1.159589 0.933312,2.092896 2.092895,2.092896 h 7.073474 c 1.15958,0 2.09289,-0.933307 2.09289,-2.092896 v -3.609082 c 0,-1.159589 -0.93331,-2.092895 -2.09289,-2.092895 z m 18.155994,0 c -1.15957,0 -2.09341,0.933306 -2.09341,2.092895 v 3.609082 c 0,1.159589 0.93384,2.092896 2.09341,2.092896 h 7.07296 c 1.15959,0 2.09341,-0.933307 2.09341,-2.092896 v -3.609082 c 0,-1.159589 -0.93382,-2.092895 -2.09341,-2.092895 z M 52.17596,90.452237 71.752026,105.43272 52.17596,93.258784 Z m 65.85541,0 v 2.798795 L 98.771569,105.19036 Z m 3.10162,2.994132 v 3.821472 L 91.831419,112.56252 c -0.22601,-0.17495 -0.45896,-0.34659 -0.66559,-0.53796 z m -72.058649,0.0021 29.599227,18.408181 c -0.191965,0.18608 -0.382216,0.37356 -0.563273,0.5674 L 49.074341,97.268358 Z m 40.669348,20.398751 a 7.1490707,3.8129487 0 0 1 -4.64106,0.92294 7.1490707,3.8129487 0 0 1 -4.64002,-0.92242 v 48.66214 c 0,1.24751 1.0239,2.25155 2.29598,2.25155 h 4.68912 c 1.27209,0 2.29598,-1.00407 2.29598,-2.25155 z m -44.414856,0.97927 c -2.819814,0.0734 -5.076694,3.40852 -5.076693,6.73809 -10e-7,3.67401 2.693486,7.02984 5.967595,6.65231 3.393634,-0.39132 3.815273,-2.78296 3.815271,-6.45697 2e-6,-3.67401 -0.225978,-6.06501 -3.815271,-6.84765 -0.301888,-0.0658 -0.599197,-0.0934 -0.890902,-0.0858 z m 79.534677,0 c -0.2917,-0.008 -0.58952,0.02 -0.89141,0.0858 -3.58932,0.78264 -3.81529,3.17364 -3.81528,6.84765 -1e-5,3.67401 0.42162,6.06565 3.81528,6.45697 3.27412,0.37753 5.96759,-2.9783 5.96759,-6.65231 0,-3.32957 -2.25634,-6.66466 -5.07618,-6.73809 z" />
  </g>
</svg>
